<?xml version="1.0" encoding="utf-8"?>
<!-- Generator: Adobe Illustrator 16.0.1, SVG Export Plug-In . SVG Version: 6.00 Build 0)  -->
<!DOCTYPE svg PUBLIC "-//W3C//DTD SVG 1.1//EN" "http://www.w3.org/Graphics/SVG/1.1/DTD/svg11.dtd">
<svg version="1.1" id="Layer_1" xmlns="http://www.w3.org/2000/svg" xmlns:xlink="http://www.w3.org/1999/xlink" x="0px" y="0px"
	 width="30px" height="30px" viewBox="0 0 30 30" enable-background="new 0 0 30 30" xml:space="preserve">
<g>
	<path fill="#52A2D9" d="M15,0.5C7.004,0.5,0.5,7.004,0.5,15c0,7.996,6.504,14.5,14.5,14.5c7.995,0,14.5-6.504,14.5-14.5
		C29.5,7.004,22.995,0.5,15,0.5z"/>
	<path fill="#F05F6D" d="M15,1.831c-2.331,0-4.309,3.729-5.023,8.913c-0.023,0.167-0.044,0.336-0.064,0.506
		c-0.097,0.815-0.164,1.664-0.196,2.537C9.7,14.187,9.692,14.591,9.692,15c0,0.41,0.008,0.813,0.024,1.212
		c0.033,0.873,0.099,1.721,0.196,2.538c1.094,0.141,2.262,0.237,3.481,0.283c0.527,0.02,1.062,0.032,1.606,0.032
		c0.543,0,1.08-0.013,1.605-0.032c1.221-0.046,2.389-0.143,3.483-0.283c0.121-0.017,0.239-0.033,0.358-0.051
		c4.555-0.64,7.723-2.055,7.723-3.7C28.17,7.727,22.272,1.831,15,1.831z"/>
	<path fill="#FFFFFF" d="M20.447,11.299c-0.132-0.193-0.273-0.377-0.425-0.555C18.814,9.321,17.015,8.416,15,8.416
		c-0.652,0-1.234,0.999-1.606,2.551c-0.147,0.619-0.263,1.325-0.336,2.091C13,13.672,12.967,14.325,12.967,15
		s0.032,1.329,0.09,1.942c0.615,0.059,1.267,0.09,1.943,0.09c0.676,0,1.329-0.031,1.943-0.09c1.351-0.128,2.517-0.388,3.343-0.729
		c0.815-0.338,1.3-0.758,1.3-1.212C21.586,13.628,21.165,12.354,20.447,11.299z"/>
</g>
</svg>
